<svg width="129" height="128" viewBox="0 0 129 128" fill="none" xmlns="http://www.w3.org/2000/svg">
<rect width="129" height="128" fill="#1E1E1E"/>
<g id="Liquidity / Add" clip-path="url(#clip0_0_1)">
<rect width="1440" height="1024" transform="translate(-656 -426)" fill="#0D000F"/>
<g id="Rectangle 4" opacity="0.1" filter="url(#filter0_f_0_1)">
<rect x="-656" y="-425" width="899" height="727" rx="24" fill="#1F34BC"/>
</g>
<g id="Rectangle 5" opacity="0.1" filter="url(#filter1_f_0_1)">
<rect x="-71" y="-536" width="899" height="727" rx="24" fill="#BC1FAC"/>
</g>
<g id="Rectangle 6" opacity="0.2" filter="url(#filter2_f_0_1)">
<rect x="-169" y="-197" width="527" height="543" rx="24" fill="#1F90BC"/>
</g>
<path id="Rectangle 7" d="M-656 -426H784V61C784 69.8365 776.837 77 768 77H-640C-648.837 77 -656 69.8365 -656 61V-426Z" fill="#002B91"/>
<g id="Frame 48" filter="url(#filter3_b_0_1)">
<rect x="-257" y="-136" width="643" height="444" rx="24" fill="black" fill-opacity="0.45"/>
<g id="Frame 57">
<g id="ghost-fill" clip-path="url(#clip1_0_1)">
<g id="Group">
<path id="Vector" d="M64.5 10.6667C77.2304 10.6667 89.4394 15.7239 98.4411 24.7256C107.443 33.7274 112.5 45.9364 112.5 58.6667V98.6667C112.502 102.656 111.226 106.54 108.859 109.751C106.492 112.962 103.159 115.331 99.348 116.509C95.5371 117.688 91.4488 117.614 87.6825 116.3C83.9163 114.986 80.6702 112.499 78.42 109.205C77.0268 111.673 75.003 113.726 72.5558 115.155C70.1086 116.583 67.3257 117.336 64.492 117.336C61.6583 117.336 58.8754 116.583 56.4282 115.155C53.981 113.726 51.9572 111.673 50.564 109.205C48.3614 112.421 45.2078 114.866 41.5453 116.198C37.8827 117.53 33.8951 117.683 30.1416 116.634C26.388 115.585 23.0569 113.388 20.6152 110.351C18.1735 107.313 16.7439 103.587 16.5267 99.6961L16.5 98.6614V58.6667C16.5 45.9364 21.5571 33.7274 30.5589 24.7256C39.5606 15.7239 51.7696 10.6667 64.5 10.6667V10.6667ZM64.5 64.0001C58.6067 64.0001 53.8333 69.9734 53.8333 77.3334C53.8333 84.6934 58.6067 90.6667 64.5 90.6667C70.3933 90.6667 75.1667 84.6934 75.1667 77.3334C75.1667 69.9734 70.3933 64.0001 64.5 64.0001ZM51.1667 42.6667C49.0449 42.6667 47.0101 43.5096 45.5098 45.0099C44.0095 46.5102 43.1667 48.545 43.1667 50.6667C43.1667 52.7885 44.0095 54.8233 45.5098 56.3236C47.0101 57.8239 49.0449 58.6667 51.1667 58.6667C53.2884 58.6667 55.3232 57.8239 56.8235 56.3236C58.3238 54.8233 59.1667 52.7885 59.1667 50.6667C59.1667 48.545 58.3238 46.5102 56.8235 45.0099C55.3232 43.5096 53.2884 42.6667 51.1667 42.6667V42.6667ZM77.8333 42.6667C75.7116 42.6667 73.6768 43.5096 72.1765 45.0099C70.6762 46.5102 69.8333 48.545 69.8333 50.6667C69.8333 52.7885 70.6762 54.8233 72.1765 56.3236C73.6768 57.8239 75.7116 58.6667 77.8333 58.6667C79.9551 58.6667 81.9899 57.8239 83.4902 56.3236C84.9905 54.8233 85.8333 52.7885 85.8333 50.6667C85.8333 48.545 84.9905 46.5102 83.4902 45.0099C81.9899 43.5096 79.9551 42.6667 77.8333 42.6667V42.6667Z" fill="url(#paint0_linear_0_1)"/>
</g>
</g>
</g>
<rect x="-256.5" y="-135.5" width="642" height="443" rx="23.5" stroke="url(#paint1_linear_0_1)"/>
</g>
</g>
<defs>
<filter id="filter0_f_0_1" x="-856" y="-625" width="1299" height="1127" filterUnits="userSpaceOnUse" color-interpolation-filters="sRGB">
<feFlood flood-opacity="0" result="BackgroundImageFix"/>
<feBlend mode="normal" in="SourceGraphic" in2="BackgroundImageFix" result="shape"/>
<feGaussianBlur stdDeviation="100" result="effect1_foregroundBlur_0_1"/>
</filter>
<filter id="filter1_f_0_1" x="-271" y="-736" width="1299" height="1127" filterUnits="userSpaceOnUse" color-interpolation-filters="sRGB">
<feFlood flood-opacity="0" result="BackgroundImageFix"/>
<feBlend mode="normal" in="SourceGraphic" in2="BackgroundImageFix" result="shape"/>
<feGaussianBlur stdDeviation="100" result="effect1_foregroundBlur_0_1"/>
</filter>
<filter id="filter2_f_0_1" x="-369" y="-397" width="927" height="943" filterUnits="userSpaceOnUse" color-interpolation-filters="sRGB">
<feFlood flood-opacity="0" result="BackgroundImageFix"/>
<feBlend mode="normal" in="SourceGraphic" in2="BackgroundImageFix" result="shape"/>
<feGaussianBlur stdDeviation="100" result="effect1_foregroundBlur_0_1"/>
</filter>
<filter id="filter3_b_0_1" x="-341" y="-220" width="811" height="612" filterUnits="userSpaceOnUse" color-interpolation-filters="sRGB">
<feFlood flood-opacity="0" result="BackgroundImageFix"/>
<feGaussianBlur in="BackgroundImageFix" stdDeviation="42"/>
<feComposite in2="SourceAlpha" operator="in" result="effect1_backgroundBlur_0_1"/>
<feBlend mode="normal" in="SourceGraphic" in2="effect1_backgroundBlur_0_1" result="shape"/>
</filter>
<linearGradient id="paint0_linear_0_1" x1="64.5" y1="10.6667" x2="64.5" y2="117.342" gradientUnits="userSpaceOnUse">
<stop stop-color="white" stop-opacity="0.5"/>
<stop offset="1" stop-color="white" stop-opacity="0.1"/>
</linearGradient>
<linearGradient id="paint1_linear_0_1" x1="64.5" y1="-318.199" x2="64.9203" y2="399.1" gradientUnits="userSpaceOnUse">
<stop stop-color="white" stop-opacity="0.4"/>
<stop offset="0.634341" stop-color="white" stop-opacity="0.35"/>
<stop offset="1" stop-color="white" stop-opacity="0.15"/>
</linearGradient>
<clipPath id="clip0_0_1">
<rect width="1440" height="1024" fill="white" transform="translate(-656 -426)"/>
</clipPath>
<clipPath id="clip1_0_1">
<rect width="128" height="128" fill="white" transform="translate(0.5)"/>
</clipPath>
</defs>
</svg>
